<?xml version="1.0" encoding="UTF-8" standalone="no"?>
<!-- Created with Inkscape (http://www.inkscape.org/) -->

<svg
   xmlns:dc="http://purl.org/dc/elements/1.1/"
   xmlns:cc="http://creativecommons.org/ns#"
   xmlns:rdf="http://www.w3.org/1999/02/22-rdf-syntax-ns#"
   xmlns:svg="http://www.w3.org/2000/svg"
   xmlns="http://www.w3.org/2000/svg"
   xmlns:xlink="http://www.w3.org/1999/xlink"
   xmlns:sodipodi="http://sodipodi.sourceforge.net/DTD/sodipodi-0.dtd"
   xmlns:inkscape="http://www.inkscape.org/namespaces/inkscape"
   width="544.42072pt"
   height="224.74983pt"
   viewBox="0 0 680.52591 280.93729"
   id="svg2"
   version="1.1"
   inkscape:version="0.91 r13725"
   sodipodi:docname="ESIconWhite.svg">
  <defs
     id="defs4">
    <linearGradient
       inkscape:collect="always"
       id="linearGradient4144">
      <stop
         style="stop-color:#000000;stop-opacity:1;"
         offset="0"
         id="stop4146" />
      <stop
         style="stop-color:#000000;stop-opacity:0;"
         offset="1"
         id="stop4148" />
    </linearGradient>
    <radialGradient
       inkscape:collect="always"
       xlink:href="#linearGradient4144"
       id="radialGradient4283"
       gradientUnits="userSpaceOnUse"
       gradientTransform="matrix(1,0,0,0.76702919,0,85.345352)"
       cx="303.64697"
       cy="366.33496"
       fx="303.64697"
       fy="366.33496"
       r="106.62842" />
    <radialGradient
       inkscape:collect="always"
       xlink:href="#linearGradient4144"
       id="radialGradient4285"
       gradientUnits="userSpaceOnUse"
       gradientTransform="matrix(1,0,0,0.76702919,0,85.345352)"
       cx="303.64697"
       cy="366.33496"
       fx="303.64697"
       fy="366.33496"
       r="106.62842" />
    <radialGradient
       inkscape:collect="always"
       xlink:href="#linearGradient4144"
       id="radialGradient4287"
       gradientUnits="userSpaceOnUse"
       gradientTransform="matrix(1,0,0,0.76702919,0,85.345352)"
       cx="303.64697"
       cy="366.33496"
       fx="303.64697"
       fy="366.33496"
       r="106.62842" />
  </defs>
  <sodipodi:namedview
     id="base"
     pagecolor="#ffffff"
     bordercolor="#666666"
     borderopacity="1.0"
     inkscape:pageopacity="0.0"
     inkscape:pageshadow="2"
     inkscape:zoom="0.7"
     inkscape:cx="305.05651"
     inkscape:cy="230.90354"
     inkscape:document-units="px"
     inkscape:current-layer="layer1"
     showgrid="false"
     fit-margin-top="10"
     fit-margin-right="10"
     fit-margin-bottom="10"
     fit-margin-left="10"
     inkscape:window-width="1166"
     inkscape:window-height="655"
     inkscape:window-x="82"
     inkscape:window-y="36"
     inkscape:window-maximized="0"
     units="pt" />
  <metadata
     id="metadata7">
    <rdf:RDF>
      <cc:Work
         rdf:about="">
        <dc:format>image/svg+xml</dc:format>
        <dc:type
           rdf:resource="http://purl.org/dc/dcmitype/StillImage" />
        <dc:title></dc:title>
      </cc:Work>
    </rdf:RDF>
  </metadata>
  <g
     inkscape:label="Ebene 1"
     inkscape:groupmode="layer"
     id="layer1"
     transform="translate(-199.42897,-588.79276)"
     style="display:inline">
    <g
       transform="translate(-3.7737863e-6,343.70079)"
       style="font-style:normal;font-weight:normal;font-size:40px;line-height:125%;font-family:sans-serif;letter-spacing:0px;word-spacing:0px;display:inline;fill:url(#radialGradient4287);fill-opacity:1;stroke:none;stroke-width:4.5;stroke-linecap:butt;stroke-linejoin:miter;stroke-miterlimit:4;stroke-dasharray:none;stroke-opacity:1"
       id="flowRoot4332">
      <path
         d="m 445.84473,292.47461 0,50.125 63.25,0 0,25.875 -63.25,0 0,51.125 80.25,0 0,26.875 -114,0 0,-180.75 114,0 0,26.75 -80.25,0 z"
         style="font-style:normal;font-variant:normal;font-weight:bold;font-stretch:normal;font-size:250px;font-family:Lato;-inkscape-font-specification:'Lato Bold';text-align:center;text-anchor:middle;fill:#0099ee;fill-opacity:1;stroke:#ffffff;stroke-width:4.5;stroke-linecap:butt;stroke-linejoin:bevel;stroke-miterlimit:4;stroke-dasharray:none;stroke-opacity:1"
         id="path4364" />
      <path
         d="m 651.89941,298.59961 q -1.5,2.625 -3.25,3.875 -1.625,1.125 -4.125,1.125 -2.625,0 -5.75,-1.875 -3,-2 -7.25,-4.375 -4.25,-2.375 -10,-4.25 -5.625,-2 -13.375,-2 -7,0 -12.25,1.75 -5.25,1.625 -8.875,4.625 -3.5,3 -5.25,7.25 -1.75,4.125 -1.75,9.125 0,6.375 3.5,10.625 3.625,4.25 9.5,7.25 5.875,3 13.375,5.375 7.5,2.375 15.375,5.125 7.875,2.625 15.375,6.25 7.5,3.5 13.375,9 5.875,5.375 9.375,13.25 3.625,7.875 3.625,19.125 0,12.25 -4.25,23 -4.125,10.625 -12.25,18.625 -8,7.875 -19.625,12.5 -11.625,4.5 -26.625,4.5 -8.625,0 -17,-1.75 -8.375,-1.625 -16.125,-4.75 -7.625,-3.125 -14.375,-7.5 -6.75,-4.375 -12,-9.75 l 9.875,-16.125 q 1.25,-1.75 3.25,-2.875 2,-1.25 4.25,-1.25 3.125,0 6.75,2.625 3.625,2.5 8.625,5.625 5,3.125 11.625,5.75 6.75,2.5 16.125,2.5 14.375,0 22.25,-6.75 7.875,-6.875 7.875,-19.625 0,-7.125 -3.625,-11.625 -3.5,-4.5 -9.375,-7.5 -5.875,-3.125 -13.375,-5.25 -7.5,-2.125 -15.25,-4.625 -7.75,-2.5 -15.25,-6 -7.5,-3.5 -13.375,-9.125 -5.875,-5.625 -9.5,-14 -3.5,-8.5 -3.5,-20.875 0,-9.875 3.875,-19.25 4,-9.375 11.5,-16.625 7.5,-7.25 18.5,-11.625 11,-4.375 25.25,-4.375 16,0 29.5,5 13.5,5 23,14 l -8.375,15.875 z"
         style="font-style:normal;font-variant:normal;font-weight:bold;font-stretch:normal;font-size:250px;font-family:Lato;-inkscape-font-specification:'Lato Bold';text-align:center;text-anchor:middle;fill:#0099ee;fill-opacity:1;stroke:#ffffff;stroke-width:4.5;stroke-linecap:butt;stroke-linejoin:bevel;stroke-miterlimit:4;stroke-dasharray:none;stroke-opacity:1"
         id="path4366" />
    </g>
    <flowRoot
       xml:space="preserve"
       id="flowRoot4155"
       style="font-style:normal;font-variant:normal;font-weight:bold;font-stretch:normal;font-size:40px;line-height:125%;font-family:sans-serif;-inkscape-font-specification:'sans-serif Bold';letter-spacing:0px;word-spacing:0px;fill:#000000;fill-opacity:1;stroke:none;stroke-width:1px;stroke-linecap:butt;stroke-linejoin:miter;stroke-opacity:1"
       transform="translate(0,343.70079)"><flowRegion
         id="flowRegion4157"><rect
           id="rect4159"
           width="872.77179"
           height="464.67017"
           x="92.934036"
           y="134.89479"
           style="font-style:normal;font-variant:normal;font-weight:bold;font-stretch:normal;font-family:sans-serif;-inkscape-font-specification:'sans-serif Bold'" /></flowRegion><flowPara
         id="flowPara4161"></flowPara></flowRoot>    <path
       style="fill:#ffffff;fill-opacity:1;fill-rule:evenodd;stroke:#ffffff;stroke-width:1px;stroke-linecap:butt;stroke-linejoin:miter;stroke-opacity:1"
       d="m 212.13204,704.86975 220.21325,-8.08121 52.52794,-76.77161 54.54823,88.89343 68.69037,-92.93404 258.59906,-14.14213 -10.10153,26.26396 -242.43661,-2.0203 -74.75129,103.03556 -54.54823,-90.91374 -46.46702,68.69038 -208.09142,6.06092 z"
       id="path4171"
       inkscape:connector-curvature="0"
       sodipodi:nodetypes="ccccccccccccc" />
    <path
       style="fill:#ffffff;fill-opacity:1;fill-rule:evenodd;stroke:#ffffff;stroke-width:1px;stroke-linecap:butt;stroke-linejoin:miter;stroke-opacity:1"
       d="M 431.43666,715.3179 527.29963,856.39263 708.06617,633.54631 688.82251,634.85234 528.60564,840.35275 445.52803,713.91036 Z"
       id="path4173"
       inkscape:connector-curvature="0"
       sodipodi:nodetypes="ccccccc" />
  </g>
  <g
     inkscape:groupmode="layer"
     id="layer2"
     inkscape:label="Ebene 2"
     style="display:none"
     transform="translate(-199.42897,-245.09197)">
    <flowRoot
       transform="translate(-3.7737863e-6,-4.9615813e-6)"
       style="font-style:normal;font-weight:normal;font-size:40px;line-height:125%;font-family:sans-serif;letter-spacing:0px;word-spacing:0px;display:inline;fill:url(#radialGradient4287);fill-opacity:1;stroke:none;stroke-width:4.5;stroke-linecap:butt;stroke-linejoin:miter;stroke-miterlimit:4;stroke-dasharray:none;stroke-opacity:1"
       id="flowRoot4253"
       xml:space="preserve"><flowRegion
         style="fill:url(#radialGradient4285);fill-opacity:1"
         id="flowRegion4255"><rect
           style="fill:url(#radialGradient4283);fill-opacity:1;stroke-width:4.5;stroke-miterlimit:4;stroke-dasharray:none"
           y="189.44304"
           x="62.629463"
           height="371.73618"
           width="939.44196"
           id="rect4257" /></flowRegion><flowPara
         style="font-style:normal;font-variant:normal;font-weight:bold;font-stretch:normal;font-size:250px;font-family:Lato;-inkscape-font-specification:'Lato Bold';text-align:center;text-anchor:middle;fill:#0099ee;fill-opacity:1;stroke:#000000;stroke-width:4.5;stroke-linecap:butt;stroke-linejoin:bevel;stroke-miterlimit:4;stroke-dasharray:none;stroke-opacity:1"
         id="flowPara4259">ES</flowPara></flowRoot>  </g>
</svg>
