<?xml version="1.0" encoding="UTF-8" standalone="no"?>
<svg
   xmlns:dc="http://purl.org/dc/elements/1.1/"
   xmlns:cc="http://creativecommons.org/ns#"
   xmlns:rdf="http://www.w3.org/1999/02/22-rdf-syntax-ns#"
   xmlns:svg="http://www.w3.org/2000/svg"
   xmlns="http://www.w3.org/2000/svg"
   viewBox="0 0 257.01334 94.493332"
   height="94.493332"
   width="257.01334"
   xml:space="preserve"
   id="svg2"
   version="1.1"><metadata
     id="metadata8"><rdf:RDF><cc:Work
         rdf:about=""><dc:format>image/svg+xml</dc:format><dc:type
           rdf:resource="http://purl.org/dc/dcmitype/StillImage" /></cc:Work></rdf:RDF></metadata><defs
     id="defs6" /><g
     transform="matrix(1.3333333,0,0,-1.3333333,0,94.493333)"
     id="g10"><g
       transform="scale(0.1)"
       id="g12"><path
         id="path14"
         style="fill:#ffffff;fill-opacity:1;fill-rule:nonzero;stroke:none"
         d="M 141.734,538.586 H 453.547 V 566.93 H 141.734 v -28.344" /><path
         id="path16"
         style="fill:#ffffff;fill-opacity:1;fill-rule:nonzero;stroke:none"
         d="m 141.734,425.199 h 311.813 v 28.348 H 141.734 v -28.348" /><path
         id="path18"
         style="fill:#ffffff;fill-opacity:1;fill-rule:nonzero;stroke:none"
         d="M 141.734,311.813 H 453.547 V 340.16 H 141.734 v -28.347" /><path
         id="path20"
         style="fill:#ffffff;fill-opacity:1;fill-rule:nonzero;stroke:none"
         d="m 141.734,198.43 h 311.813 v 28.347 H 141.734 V 198.43" /><path
         id="path22"
         style="fill:#ffffff;fill-opacity:1;fill-rule:nonzero;stroke:none"
         d="m 255.129,481.891 h 311.805 v 28.343 H 255.129 v -28.343" /><path
         id="path24"
         style="fill:#ffffff;fill-opacity:1;fill-rule:nonzero;stroke:none"
         d="m 255.129,368.5 h 311.805 v 28.352 H 255.129 V 368.5" /><path
         id="path26"
         style="fill:#ffffff;fill-opacity:1;fill-rule:nonzero;stroke:none"
         d="m 255.129,255.121 h 311.805 v 28.348 H 255.129 v -28.348" /><path
         id="path28"
         style="fill:#ffffff;fill-opacity:1;fill-rule:nonzero;stroke:none"
         d="m 255.129,141.738 h 311.805 v 28.344 H 255.129 v -28.344" /><path
         id="path30"
         style="fill:#ffffff;fill-opacity:1;fill-rule:nonzero;stroke:none"
         d="m 796.391,566.93 h -29.942 v -55.52 h -56.097 v 55.52 H 680.316 V 425.273 h 30.036 v 61.145 h 56.097 v -61.145 h 29.942 z M 971.699,425.273 921.504,567.512 H 884.789 L 834.797,425.273 h 32.355 l 10.27,33.719 h 51.641 l 10.273,-33.719 z m -86.715,58.911 c 10.075,32.625 16.188,53.066 18.317,61.328 0.508,-2.324 1.367,-5.489 2.558,-9.492 1.192,-4.004 6.543,-21.286 16.036,-51.836 z m 292.406,82.746 h -29.55 l -18.02,-77.321 c -1.17,-4.648 -2.46,-10.738 -3.88,-18.265 -1.42,-7.528 -2.45,-13.805 -3.1,-18.844 -0.71,5.234 -1.75,11.5 -3.1,18.801 -1.35,7.293 -2.48,12.722 -3.39,16.273 l -20.64,79.356 h -28.39 l -20.62,-79.356 c -1.23,-4.258 -2.54,-10.254 -3.93,-17.969 -1.4,-7.718 -2.28,-13.417 -2.67,-17.105 -1.43,10.465 -3.71,22.836 -6.88,37.109 L 1015.1,566.93 H 985.547 L 1021.7,425.273 h 34.1 l 19.08,74.223 c 0.84,3.293 2.03,8.801 3.6,16.52 1.54,7.714 2.51,13.32 2.89,16.812 0.26,-2.848 1.25,-8.418 2.96,-16.719 1.71,-8.3 2.92,-13.773 3.63,-16.425 l 19.19,-74.411 h 34.2 l 36.04,141.657" /><path
         id="path32"
         style="fill:#ffffff;fill-opacity:1;fill-rule:nonzero;stroke:none"
         d="m 796.391,339.984 h -29.942 v -55.515 h -56.097 v 55.515 H 680.316 V 198.336 h 30.036 v 61.137 h 56.097 v -61.137 h 29.942 z M 971.699,198.336 921.504,340.57 H 884.789 L 834.797,198.336 h 32.355 l 10.27,33.719 h 51.641 l 10.273,-33.719 z m -86.715,58.91 c 10.075,32.613 16.188,53.063 18.317,61.324 0.508,-2.324 1.367,-5.488 2.558,-9.492 1.192,-4.004 6.543,-21.285 16.036,-51.832 z m 212.636,-58.91 36.52,110.937 h 0.88 c -0.78,-17.832 -1.21,-28.808 -1.32,-32.945 -0.09,-4.133 -0.14,-7.777 -0.14,-10.941 v -67.051 h 28 v 141.648 h -40.89 l -35.55,-108.32 h -0.59 l -33.51,108.32 h -40.9 V 198.336 h 26.85 v 65.883 c 0,7.558 -0.62,22.64 -1.85,45.25 h 0.88 l 34.1,-111.133 z m 116.94,0 h 53 c 16.02,0 28.7,3.613 38.03,10.848 9.33,7.238 14,17.308 14,30.23 0,9.109 -1.98,16.41 -5.96,21.899 -3.97,5.496 -10.45,9.238 -19.42,11.242 v 0.968 c 6.58,1.094 11.86,4.364 15.84,9.786 3.97,5.425 5.96,12.359 5.96,20.828 0,12.468 -4.54,21.562 -13.62,27.273 -9.07,5.715 -23.65,8.574 -43.75,8.574 h -44.08 z m 30.04,117.039 h 15.79 c 8.59,0 14.87,-1.18 18.85,-3.535 3.97,-2.363 5.96,-6.25 5.96,-11.668 0,-5.82 -1.83,-9.981 -5.48,-12.5 -3.65,-2.52 -9.54,-3.781 -17.68,-3.781 h -17.44 z m 18.6,-55.32 c 16.8,0 25.2,-5.879 25.2,-17.637 0,-6.523 -1.98,-11.367 -5.92,-14.531 -3.94,-3.164 -10.05,-4.746 -18.31,-4.746 h -19.57 v 36.914 z m 187.61,79.929 v -86.523 c 0,-10.977 -2.22,-19.035 -6.64,-24.176 -4.42,-5.129 -11.54,-7.699 -21.37,-7.699 -10.13,0 -17.4,2.555 -21.79,7.656 -4.4,5.106 -6.6,13.11 -6.6,24.028 v 86.714 h -29.94 v -91.261 c 0,-16.219 5.04,-28.993 15.12,-38.325 10.08,-9.335 24.23,-14.003 42.44,-14.003 12.08,0 22.54,2.101 31.4,6.3 8.85,4.2 15.6,10.235 20.29,18.121 4.69,7.879 7.02,17.051 7.02,27.512 v 91.656 z m 112.04,-24.609 h 9.11 c 9.69,0 16.84,-1.414 21.46,-4.266 4.62,-2.832 6.93,-7.617 6.93,-14.336 0,-6.777 -2.26,-11.753 -6.79,-14.918 -4.52,-3.164 -11.53,-4.746 -21.02,-4.746 h -9.69 z m 15.99,-62.684 33.82,-54.355 h 33.33 c -6.47,9.301 -20.35,29.871 -41.67,61.719 8.4,3.679 14.89,8.769 19.48,15.258 4.58,6.496 6.87,13.902 6.87,22.23 0,14.277 -4.62,24.922 -13.85,31.926 -9.23,7.011 -23.48,10.515 -42.73,10.515 h -41.28 V 198.336 h 30.04 v 54.355 z m 153.65,0.196 h 26.84 v -29.551 c -6.46,-1.293 -12.83,-1.941 -19.09,-1.941 -12.02,0 -21.17,4.054 -27.47,12.16 -6.3,8.105 -9.45,19.843 -9.45,35.218 0,14.727 3.92,26.446 11.73,35.168 7.81,8.719 18.21,13.086 31.2,13.086 11.17,0 21.93,-2.589 32.27,-7.754 l 9.98,24.032 c -13.51,5.812 -27.52,8.722 -42.06,8.722 -23.19,0 -41.32,-6.398 -54.4,-19.191 -13.08,-12.793 -19.63,-30.613 -19.63,-53.481 0,-23.511 5.64,-41.55 16.92,-54.117 11.27,-12.558 27.59,-18.843 48.97,-18.843 8.4,0 16.62,0.597 24.66,1.793 8.05,1.199 16.62,3.277 25.72,6.25 v 73.449 h -56.19 v -25" /></g></g></svg>